<svg id="Layer_1" xmlns="http://www.w3.org/2000/svg" version="1.1" viewBox="0 0 1080 1080">
  
  <!-- <defs>
    <style>
      .st0 {
        fill: #104573;
      }
    </style>
  </defs> -->
  <g>
    <path class="st0" d="M574.22,228.65c6.16,12.5,18.84,20.41,32.72,20.41h211.16c9.38,0,16.99-7.64,16.99-17.07v-43.25c0-11.65-9.28-21.16-20.87-21.39l-247.73-4.84c-11.44-.22-19.04,11.82-13.96,22.12l21.69,44.02Z"/>
    <path class="st0" d="M705.61,421.91h35.74c44.84,0,81.19-36.35,81.19-81.19v-67.66c0-8.32-6.74-15.06-15.06-15.06h-195.39c-4.78,0-9.29,2.23-12.2,6.03l-35.2,46.03c-2.86,3.74-.42,9.16,4.27,9.5l37.07,2.68c.86.06,1.53.78,1.53,1.64h0c0,54.15,43.9,98.04,98.04,98.04Z"/>
    <path class="st0" d="M878.55,445.91h-17.81l-246.75,327.68c-4.36,5.8-.23,14.09,7.03,14.09h181.21c17.51,0,31.71,14.2,31.71,31.71h0c0,17.51-14.2,31.71-31.71,31.71h-270.22l-.63,66.38h391.73c8.08,0,14.62-6.55,14.62-14.62v-397.78c0-32.68-26.49-59.17-59.17-59.17Z"/>
    <polygon class="st0" points="535.19 512.5 532.68 779.11 536.07 511.31 535.19 512.5"/>
    <polygon class="st0" points="535.82 779.11 535.82 779.34 790.27 445.91 562.52 445.91 532.68 779.11 535.82 779.11"/>
    <path class="st0" d="M535.82,445.91h-71.5c-3.42,0-6.63,1.66-8.61,4.45l-90.8,128.31-42.55-28.28-2.39,1.26-120.51-82.94-22.81,32.3c-16.43,16.43-14.02,43.71,5.04,57.01l171.62,119.74c20.25,14.13,47.75,11.55,65.03-6.09l116.86-159.18.63-66.58Z"/>
    <polygon class="st0" points="536.07 511.31 532.68 779.11 562.52 445.91 535.82 445.91 535.19 512.5 536.07 511.31"/>
    <path class="st0" d="M339.38,541.44c11.72-6.17,17.11-20.02,12.66-32.49l-17.77-49.76,23.57-15.51c8.93-5.88,12.65-17.12,8.98-27.16l-56.99-156.04c-4.62-12.64-18.32-19.44-31.18-15.47l-116.77,36.03c-15.2,4.69-23.37,21.16-17.9,36.1l55.48,151.59,122.9,81.68,17.02-8.97ZM297.36,277.58l56.24,140.94c2.18,5.45-.37,11.65-5.75,13.99l-8.77,3.82c-6.34,2.76-13.72-.09-16.55-6.4l-41.05-91.57c-2.35-5.24-6.45-9.5-11.6-12.04l-48.3-23.88c-4.36-2.15-3.9-8.51.72-10.02l62.83-20.56c4.95-1.62,10.3.88,12.23,5.72Z"/>
    <polygon class="st0" points="322.36 550.4 199.46 468.72 319.97 551.66 322.36 550.4"/>
  </g>
  <polygon class="st0" points="532.68 779.11 532.68 783.17 537.2 777.53 532.7 777.53 532.68 779.11"/>
  <path class="st0" d="M535.45,448.77c.5,3.9.74,7.84.6,11.77-.11,3.16-.47,6.31-.74,9.46-1.11,12.78-.88,25.64-.65,38.48"/>
  <path class="st0" d="M535.21,511.77"/>
  <path class="st0" d="M536.19,512.45c-.09,1.73-.17,3.47-.26,5.2-.03.52-.05,1.04.02,1.56.04.27.1.54.15.81.53,2.78-.3,5.66.14,8.46.14.87.4,1.74.35,2.62"/>
  <path class="st0" d="M536.2,529.56c-.09,1.67-.18,3.34-.27,5-.09,1.66-.18,3.33-.09,4.99.02.41.05.83.09,1.24.11,1.37.21,2.74.32,4.11"/>
  <path class="st0" d="M536.18,544.72c-.16,1.22-.32,2.45-.22,3.68.02.22.04.44.07.67.09.92.11,1.85.07,2.78-.02.3-.04.6-.06.9-.08,1.07-.16,2.15-.25,3.22-.07.85-.13,1.71-.2,2.56-.01.17-.03.33-.06.5-.02.11-.05.21-.08.31"/>
  <path class="st0" d="M535.94,558.34c-.03,1.03-.07,2.07-.11,3.1-.03.76-.07,1.53-.15,2.28-.07.61-.17,1.21-.3,1.8.03-.18.07-.37.1-.55"/>
  <path class="st0" d="M536.03,565.39c.04.21-.09.41-.17.61-.12.29-.13.61-.14.93-.03.83-.07,1.66-.1,2.49-.02.38-.03.76-.05,1.15-.04.88-.08,1.76-.12,2.65"/>
  <path class="st0" d="M535.73,574.79c.09,1.31.01,2.64-.22,3.94-.05.26-.1.51-.11.77-.03.42.04.84.02,1.27-.01.28-.06.56-.1.84-.05.4-.06.81-.08,1.22-.02.55-.04,1.09-.06,1.64-.03.8-.05,1.63.32,2.35"/>
  <path class="st0" d="M537.31,584.45"/>
  <path class="st0" d="M535.58,583.54c.04.83-.13,1.66.01,2.48.05.27.13.53.18.8.12.6.09,1.23-.07,1.82-.34-.59-.46-1.31-.32-1.98.07.15.09.31.1.47.04.42.08.83.11,1.25.02.17.03.35.01.52-.02.15-.06.29-.1.44-.16.65-.14,1.32-.12,1.99.02.46.04.92.06,1.39,0,.13.01.26.05.38.06.21.19.42.12.62-.01-.05-.03-.09-.04-.14"/>
  <path class="st0" d="M535.55,598.8l-.15.93c-.02.13-.04.26-.05.4,0,.18,0,.37.02.55.08,1.27-.1,2.54-.14,3.81,0,.14,0,.29.03.42.02.08.06.15.07.23.03.15-.03.31-.06.46-.1.39-.1.81-.09,1.21"/>
  <path class="st0" d="M535.48,610.41c.04.34.02.69-.05,1.03-.06.29-.15.57-.16.87"/>
  <path class="st0" d="M535.21,610.92c.16-.29.01-.64.02-.97,0-.09.02-.18.03-.27.09-.58.22-1.15.37-1.71.03-.12.12-.27.24-.22-.12.23-.31.43-.54.56-.05-.09-.09-.19-.12-.3-.02-.09,0-.23.1-.21"/>
  <path class="st0" d="M543.55,676.49"/>
  <path class="st0" d="M543.18,667.8c.42,4.28.17,8.59-.08,12.88-.09,1.55-.19,3.13-.75,4.57-.34.86-.84,1.74-.69,2.65"/>
  <path class="st0" d="M534.3,765.64c-.35-1.13-.06-2.36.23-3.51.14-.54.27-1.08.41-1.62.17-.67.34-1.35.67-1.96,0,.84-.46,1.66-1.18,2.1-.24-.57-.06-1.23.2-1.79s.61-1.1.7-1.71c.13-.84-.21-1.67-.34-2.51-.21-1.38.17-2.82-.14-4.19-.08-.36-.21-.71-.25-1.08-.1-.86.26-1.69.61-2.48-.14.93-.17,1.89-.08,2.83.12-.44.14-.91.29-1.34.19-.57.58-1.06.87-1.58s.5-1.16.29-1.73c-.13.45-.38.87-.72,1.2-.36-.3-.41-.83-.41-1.3-.02-2.02.23-4.04.73-6,.03-.1.06-.22.15-.28.08-.06.2-.05.29-.08.26-.06.41-.38.31-.62"/>
  <path class="st0" d="M535.9,744.22c.89-2.19.52-4.66.64-7.03.09-1.76.47-3.48.71-5.22.27-1.96.38-3.93.32-5.91"/>
  <path class="st0" d="M538.03,718.23c-1.41,5.35-.24,11.07-1.13,16.54-.08.5-.18.99-.26,1.49-.43,2.52-.51,5.09-.23,7.63"/>
  <path class="st0" d="M537.77,724.58c.22-1.17.32-2.36.3-3.55,0-.19,0-.38.07-.55.05-.12.14-.22.21-.32.27-.4.3-.91.33-1.39.05-.82.1-1.66-.07-2.46-.09-.42-.23-.83-.31-1.25-.09-.48-.1-.97-.11-1.46-.02-1.07-.04-2.15.19-3.19.27-1.21.87-2.34.97-3.57.03-.37.02-.74.03-1.11.04-.81.24-1.61.44-2.4"/>
  <path class="st0" d="M539.08,711.73c-.4-2.04-.41-4.15-.02-6.19.1-.51.22-1.02.34-1.53.15-.64.28-1.29.38-1.95.08-.57.14-1.15.1-1.72-.04-.59-.17-1.17-.17-1.77,0-.77.19-1.52.25-2.28.06-.76,0-1.53.1-2.29s.4-1.54,1.03-1.97"/>
  <path class="st0" d="M562.72,448.9l-2.4,10.9c-.2.93-.48,1.96-1.3,2.45-.78.46-1.82.29-2.57.78-.8.53-.99,1.61-1.07,2.56-.18,2.1-.2,4.21-.07,6.31,3.03-2.93,2.57-7.93,4.53-11.66.43,3.99.52,8.01.27,12.02l-.31-7.56c.04,6.85.03,13.71-.13,20.56-.06,2.81-.16,5.64-.82,8.37-.29,1.17-.68,2.31-.95,3.49-.78,3.38-.55,6.89-.7,10.35,0,.17.01.39.18.44s.2-.31.05-.23"/>
  <path class="st0" d="M559.16,508.62c.49,3.87-2,7.43-2.96,11.22-.77,3.06-.53,6.28-.89,9.42-.37,3.26-1.4,6.43-1.68,9.7-.16,1.89-.07,3.79-.18,5.68-.29,4.96-1.93,9.75-2.3,14.7-.16,2.11-.09,4.24-.52,6.31-.31-.52-.4-1.17-.25-1.76"/>
  <path class="st0" d="M553.12,562.31c-.51,1.65-1.02,3.3-1.3,5.01-.32,1.99-.31,4.03-.67,6.02-.41,2.26-1.28,4.42-1.64,6.68-.29,1.77-.26,3.57-.24,5.36.08,6.08.16,12.16.25,18.25,0-.4,0-.79,0-1.19"/>
  <path class="st0" d="M550.27,607.38c-.5,2.82-.99,5.63-1.49,8.45-.11.6-.21,1.2-.43,1.76-.2.53-.5,1.02-.77,1.53-2.19,4.14-2.09,9.06-2.05,13.75.04,4.71-.03,9.46-.95,14.08-.04-.48-.08-.96-.12-1.43"/>
  <path class="st0" d="M545.81,649.17c-.4,1.9-.81,3.79-1.21,5.69-.69,3.23-1.38,6.49-1.47,9.8-.04,1.43.04,2.85.05,4.28.04,5.21-.78,10.4-1.81,15.51-.47,2.31-.98,4.66-.76,7.01.06.65.12,1.43-.4,1.83-.15.12-.34.18-.49.31-.19.17-.27.43-.35.68-.32,1.06-.65,2.13-.97,3.19"/>
  <path class="st0" d="M201.87,470.41c2.93,1.07,5.89,2.16,8.55,3.8,2.4,1.48,4.51,3.38,6.8,5.03,2.73,1.97,5.72,3.58,8.87,4.78,1.9.73,3.93,1.35,5.35,2.8"/>
  <path class="st0" d="M227.04,485.45c3.39,4.98,8.25,8.72,13.03,12.38,4.93,3.77,9.85,7.53,14.78,11.3-4.87-5.75-9.03-12.11-12.35-18.88,8.21,5.97,15.69,12.93,22.23,20.68-3.23-2.34-6.46-4.68-9.69-7.02,3.46,4.01,7.22,7.75,11.25,11.18-2.69-4.14-5.56-8.16-8.6-12.06,5.12,4.93,10.25,9.86,15.37,14.79-1.01-1.67-2.02-3.34-3.02-5.01,3.52,2.08,6.88,4.45,10.04,7.06-.87-2.38-1.96-4.68-3.25-6.87,1.91,3.88,3.81,7.77,5.72,11.65-1.57-2.54-3.14-5.08-4.71-7.62,4.52,3.48,8.79,7.3,12.76,11.41-2.42-2.7-5.03-5.24-7.8-7.59,1.76,3.39,3.87,6.6,6.29,9.55-1.63-2.03-3.25-4.07-4.88-6.1,3.52,3.66,7.03,7.33,10.55,10.99-2.06-2.26-4.03-4.59-5.91-7,3.27,3.01,6.71,5.83,10.31,8.44-1.27-2.47-2.73-4.83-4.37-7.06,2.32,2.93,4.85,5.68,7.57,8.24.34-1.55.26-3.19-.24-4.7,1.16,1.61,2.33,3.23,3.49,4.84-.2-.4-.4-.8-.6-1.19"/>
  <path class="st0" d="M319.8,547.14c-.08.69-.16,1.38-.24,2.08.29-.14.55-.36.75-.62.03.37-.32.72-.7.71s-.7-.36-.7-.74c0-.42.3-.94-.03-1.19-.11-.08-.25-.1-.39-.11-.98-.09-1.96-.08-2.94.02-.11.01-.22.02-.32-.03-.08-.04-.13-.12-.17-.2-.8-1.33-1.85-2.51-3.09-3.46.28.55.73,1.01,1.25,1.35-4.25-3.58-8.96-6.62-13.98-9,1.36,2.49,3.66,4.29,5.9,6.03-.07-.81-.41-1.6-.94-2.21,1.62,1.02,3.27,1.98,4.97,2.87-.54-.65-1.26-1.13-1.98-1.59-1.41-.9-2.87-1.72-4.32-2.55-1.69-.96-3.39-1.92-5.08-2.88.19.25.42.48.68.66"/>
  <path class="st0" d="M319.7,548.54c-.15-.34-.49-.55-.81-.73-1.33-.77-2.67-1.55-3.91-2.47-1.64-1.21-3.09-2.65-4.68-3.93-1.21-.97-2.49-1.85-3.77-2.72"/>
  <path class="st0" d="M305.91,536.59c-3.49-1.21-6.87-2.73-10.24-4.24-9.23-4.14-18.47-8.28-27.7-12.42"/>
</svg>